<svg xmlns="http://www.w3.org/2000/svg" width="28" height="24" viewBox="0 0 28 24" fill="none">
    <path d="M17.4167 16.8792C19.157 16.8792 20.067 18.9479 18.891 20.2306L16.0301 23.3515C15.6513 23.7647 15.1164 24 14.5558 24H7.94059C6.20508 24 5.29323 21.941 6.4596 20.6559L9.29206 17.535C9.67114 17.1173 10.209 16.8792 10.773 16.8792H17.4167ZM25.1214 8.43952C26.8613 8.43952 27.7714 10.5077 26.596 11.7906L23.7365 14.9116C23.3576 15.3251 22.8226 15.5605 22.2618 15.5605H2.87797C1.138 15.5605 0.227897 13.4923 1.40333 12.2094L4.2628 9.08843C4.64164 8.67496 5.17666 8.43952 5.73744 8.43952H25.1214ZM20.0421 0C21.7801 0 22.691 2.06422 21.5194 3.34809L18.6717 6.46894C18.2927 6.88422 17.7565 7.12084 17.1943 7.12084H10.5727C8.83397 7.12084 7.92339 5.05519 9.09634 3.77166L11.9483 0.650814C12.3272 0.236187 12.863 0 13.4247 0H20.0421Z" fill="#F2F5F8"/>
  </svg>