<svg xmlns="http://www.w3.org/2000/svg" width="18" height="24" viewBox="0 0 18 24" fill="none">
  <g clip-path="url(#clip0_19_6860)">
    <path
      d="M15.3004 8.24796C16.5187 7.4488 17.3276 6.06489 17.3276 4.4958C17.3276 2.02035 15.3102 0.0126953 12.8445 0.0126953H5.14521C2.66976 0.0126953 0.662109 2.03009 0.662109 4.4958C0.662109 6.06489 1.47102 7.4488 2.68925 8.24796C1.47102 9.04713 0.662109 10.431 0.662109 12.0001C0.662109 13.5692 1.47102 14.9531 2.68925 15.7523C1.47102 16.5515 0.662109 17.9354 0.662109 19.5045C0.662109 21.9799 2.68925 23.9876 5.17445 23.9876C7.68889 23.9876 9.73552 21.9507 9.73552 19.4557V15.3137C10.5347 16.0349 11.597 16.4832 12.7567 16.4832H12.8542C15.3297 16.4832 17.3373 14.4658 17.3373 12.0001C17.3276 10.431 16.5187 9.04713 15.3004 8.24796ZM8.26389 19.4557C8.26389 21.1418 6.87998 22.5257 5.17445 22.5257C3.49816 22.5257 2.13374 21.171 2.13374 19.5045C2.13374 17.8379 3.48841 16.493 5.14521 16.4832H8.26389V19.4557ZM8.26389 15.0213H5.14521C3.47867 15.0213 2.13374 13.6667 2.13374 12.0001C2.13374 10.3336 3.48841 8.9789 5.15496 8.9789H8.27364V15.0213H8.26389ZM8.26389 7.51702H5.14521C3.47867 7.51702 2.12399 6.16235 2.12399 4.4958C2.12399 2.82925 3.47867 1.47458 5.14521 1.47458H8.26389V7.51702ZM9.72578 1.47458H12.8445C14.511 1.47458 15.8657 2.82925 15.8657 4.4958C15.8657 6.16235 14.511 7.51702 12.8445 7.51702H9.72578V1.47458ZM12.8445 15.0213H12.747C11.0805 15.0213 9.72578 13.6667 9.72578 12.0001C9.72578 10.3336 11.0805 8.9789 12.747 8.9789H12.8445C14.511 8.9789 15.8657 10.3336 15.8657 12.0001C15.8657 13.6667 14.511 15.0213 12.8445 15.0213Z"
      fill="#F2F5F8" />
  </g>
  <defs>
    <clipPath id="clip0_19_6860">
      <rect width="16.6752" height="24" fill="white" transform="translate(0.662109)" />
    </clipPath>
  </defs>
</svg>