<svg width="590" height="97" viewBox="0 0 590 97" fill="none" xmlns="http://www.w3.org/2000/svg">
<g clip-path="url(#clip0_4091_1536)">
<path d="M538.07 83.0602C532.13 83.0602 527.15 81.8502 523.13 79.4502C519.11 77.0502 516.08 73.7702 514.05 69.6202C512.02 65.4802 511 60.7902 511 55.5702V15.9702H523.2V55.7102C523.2 61.0302 524.53 65.0002 527.19 67.6302C529.85 70.2602 533.48 71.5702 538.07 71.5702C542.66 71.5702 546.25 70.2602 548.91 67.6302C551.57 65.0002 552.9 61.0302 552.9 55.7102V15.9702H565.15V55.5702C565.15 60.7902 564.13 65.4802 562.1 69.6202C560.07 73.7602 557.05 77.0402 553.05 79.4502C549.05 81.8602 544.06 83.0602 538.08 83.0602H538.07Z" fill="#C92027"/>
<path d="M578.39 81.6502V15.9702H590.63V81.6502H578.39Z" fill="#C92027"/>
<path d="M88.5698 0.5H48.5698C35.3098 0.5 23.3098 5.87 14.6298 14.56C5.93983 23.25 0.569824 35.25 0.569824 48.5C0.569824 75.01 22.0598 96.5 48.5698 96.5C75.0798 96.5 96.5698 75.01 96.5698 48.5V8.5C96.5698 4.09 92.9798 0.5 88.5698 0.5ZM71.1998 71.13C65.4098 76.92 57.4098 80.5 48.5698 80.5C30.8898 80.5 16.5698 66.18 16.5698 48.5C16.5698 39.67 20.1498 31.67 25.9398 25.87C31.7298 20.08 39.7298 16.5 48.5698 16.5C57.4098 16.5 65.4098 20.08 71.1998 25.87C76.9898 31.67 80.5698 39.67 80.5698 48.5C80.5698 57.33 76.9898 65.34 71.1998 71.13Z" fill="#C92027"/>
<path d="M131.15 83.0601V27.2901H112.57V15.8701H162.3V27.2901H143.72V83.0701H131.15V83.0601Z" fill="#171B25"/>
<path d="M207.94 35.0601V41.5101C206.53 39.5901 204.73 37.9501 202.56 36.5901C199.4 34.6101 195.49 33.6201 190.85 33.6201C187.36 33.6201 184.14 34.2401 181.18 35.4901C178.22 36.7401 175.66 38.5001 173.5 40.7701C171.34 43.0401 169.66 45.7301 168.46 48.8301C167.26 51.9401 166.66 55.3501 166.66 59.0601C166.66 63.9901 167.7 68.3701 169.78 72.2101C171.86 76.0501 174.72 79.0601 178.37 81.2301C182.02 83.4101 186.18 84.5001 190.85 84.5001C195.52 84.5001 199.4 83.5101 202.56 81.5201C204.73 80.1601 206.53 78.5301 207.94 76.6101V83.0601H218.79V35.0601H207.94ZM204.75 66.8601C203.55 69.0501 201.9 70.7501 199.8 71.9501C197.71 73.1501 195.35 73.7501 192.72 73.7501C190.09 73.7501 187.69 73.1501 185.6 71.9501C183.5 70.7501 181.85 69.0501 180.65 66.8601C179.45 64.6701 178.85 62.0701 178.85 59.0601C178.85 56.0501 179.45 53.4501 180.65 51.2601C181.85 49.0701 183.5 47.3701 185.6 46.1701C187.69 44.9701 190.07 44.3701 192.72 44.3701C195.37 44.3701 197.71 44.9701 199.8 46.1701C201.9 47.3701 203.55 49.0701 204.75 51.2601C205.95 53.4501 206.55 56.0501 206.55 59.0601C206.55 62.0701 205.95 64.6701 204.75 66.8601Z" fill="#171B25"/>
<path d="M231.95 83.0599V13.9399H244.29V53.3499L261.67 35.0599H276.07L259.17 53.7799L278.23 83.0599H263.54L250.24 61.7999L244.29 67.8999V83.0699H231.95V83.0599Z" fill="#171B25"/>
<path d="M308.21 84.4999C303 84.4999 298.42 83.4399 294.48 81.3099C290.54 79.1799 287.47 76.2099 285.26 72.4099C283.05 68.5999 281.95 64.1699 281.95 59.1199C281.95 55.4099 282.59 51.9999 283.87 48.8999C285.15 45.7999 286.94 43.0999 289.25 40.8099C291.55 38.5199 294.27 36.7499 297.41 35.5099C300.54 34.2599 303.97 33.6399 307.68 33.6399C311.71 33.6399 315.31 34.3499 318.48 35.7699C321.65 37.1999 324.28 39.1999 326.37 41.7699C328.47 44.3499 329.94 47.3599 330.79 50.8199C331.64 54.2799 331.74 58.0199 331.1 62.0499H293.56C293.53 64.5799 294.13 66.7899 295.36 68.6699C296.59 70.5599 298.35 72.0399 300.64 73.1099C302.93 74.1799 305.62 74.7199 308.73 74.7199C311.48 74.7199 314.12 74.3199 316.65 73.5199C319.18 72.7199 321.53 71.5399 323.7 69.9699L328.02 78.5599C326.52 79.7799 324.64 80.8299 322.4 81.7299C320.16 82.6299 317.8 83.3099 315.32 83.7899C312.84 84.2699 310.46 84.5099 308.19 84.5099L308.21 84.4999ZM294.29 53.2999H319.16C319.06 50.0699 317.99 47.5299 315.94 45.6899C313.89 43.8499 311.04 42.9299 307.4 42.9299C303.76 42.9299 300.74 43.8499 298.37 45.6899C296 47.5299 294.64 50.0699 294.29 53.2999Z" fill="#171B25"/>
<path d="M373.4 84.4999C368.31 84.4999 363.61 83.6099 359.29 81.8399C354.97 80.0599 351.21 77.5899 348.01 74.4199C344.81 71.2499 342.32 67.5399 340.55 63.2899C338.77 59.0299 337.89 54.4299 337.89 49.4699C337.89 44.5099 338.78 39.8499 340.55 35.5999C342.33 31.3499 344.81 27.6299 348.01 24.4699C351.21 21.2999 354.97 18.8399 359.29 17.0799C363.61 15.3199 368.31 14.4399 373.4 14.4399C378.49 14.4399 383.19 15.3399 387.51 17.1299C391.83 18.9199 395.59 21.4199 398.79 24.6199C401.99 27.8199 404.49 31.5399 406.28 35.7799C408.07 40.0199 408.97 44.5899 408.97 49.4899C408.97 54.3899 408.07 59.0599 406.28 63.3099C404.49 67.5699 401.99 71.2799 398.79 74.4399C395.59 77.5999 391.83 80.0799 387.51 81.8599C383.19 83.6399 378.49 84.5199 373.4 84.5199V84.4999ZM373.4 72.7399C376.6 72.7399 379.56 72.1899 382.28 71.0799C385 69.9799 387.38 68.4099 389.41 66.3799C391.44 64.3499 393.03 61.8999 394.16 59.0399C395.29 56.1799 395.86 52.9799 395.86 49.4599C395.86 44.7499 394.88 40.6599 392.91 37.1699C390.94 33.6799 388.26 30.9799 384.87 29.0599C381.48 27.1399 377.65 26.1799 373.4 26.1799C370.23 26.1799 367.29 26.7299 364.57 27.8399C361.85 28.9499 359.47 30.5099 357.44 32.5499C355.41 34.5799 353.82 37.0299 352.69 39.8899C351.55 42.7499 350.99 45.9499 350.99 49.4699C350.99 54.1699 351.97 58.2699 353.94 61.7599C355.91 65.2499 358.59 67.9499 361.98 69.8699C365.37 71.7899 369.18 72.7499 373.41 72.7499L373.4 72.7399Z" fill="#171B25"/>
<path d="M436.08 35.06H448.37V45.04H436.08V83.06H423.8V45.04H414.58V35.06H423.8V28.39C423.8 23.49 425.23 19.62 428.09 16.77C430.96 13.92 434.98 12.5 440.17 12.5C441.96 12.5 443.63 12.69 445.18 13.07C446.73 13.46 448.21 14 449.62 14.71L447.56 24.26C446.63 23.75 445.73 23.39 444.87 23.2C444 23.01 443.17 22.91 442.37 22.91C440.48 22.91 438.96 23.38 437.81 24.31C436.66 25.23 436.08 26.79 436.08 28.96V35.06Z" fill="#171B25"/>
<path d="M473.33 35.06H485.62V45.04H473.33V83.06H461.04V45.04H451.83V35.06H461.04V28.39C461.04 23.49 462.48 19.62 465.34 16.77C468.2 13.92 472.23 12.5 477.41 12.5C479.2 12.5 480.88 12.69 482.43 13.07C483.98 13.46 485.46 14 486.87 14.71L484.8 24.26C483.88 23.75 482.98 23.39 482.12 23.2C481.25 23.01 480.42 22.91 479.62 22.91C477.73 22.91 476.21 23.38 475.06 24.31C473.91 25.23 473.33 26.79 473.33 28.96V35.06Z" fill="#171B25"/>
</g>
<defs>
<clipPath id="clip0_4091_1536">
<rect width="588.86" height="96" fill="white" transform="translate(0.569824 0.5)"/>
</clipPath>
</defs>
</svg>
