<svg xmlns="http://www.w3.org/2000/svg" width="48" height="48" viewBox="0 0 48 48" fill="none">
    <path
        d="M14.4004 36.4004C9.98039 36.4004 6.40039 32.8204 6.40039 28.4004C6.40039 23.9804 9.98039 20.4004 14.4004 20.4004C18.8204 20.4004 22.4004 23.9804 22.4004 28.4004C22.4004 32.8204 18.8204 36.4004 14.4004 36.4004ZM14.4004 24.4004C12.2004 24.4004 10.4004 26.2004 10.4004 28.4004C10.4004 30.6004 12.2004 32.4004 14.4004 32.4004C16.6004 32.4004 18.4004 30.6004 18.4004 28.4004C18.4004 26.2004 16.6004 24.4004 14.4004 24.4004ZM22.4004 20.4004C17.9804 20.4004 14.4004 16.8204 14.4004 12.4004C14.4004 7.98039 17.9804 4.40039 22.4004 4.40039C26.8204 4.40039 30.4004 7.98039 30.4004 12.4004C30.4004 16.8204 26.8204 20.4004 22.4004 20.4004ZM22.4004 8.40039C20.2004 8.40039 18.4004 10.2004 18.4004 12.4004C18.4004 14.6004 20.2004 16.4004 22.4004 16.4004C24.6004 16.4004 26.4004 14.6004 26.4004 12.4004C26.4004 10.2004 24.6004 8.40039 22.4004 8.40039ZM33.6004 43.6004C29.1804 43.6004 25.6004 40.0204 25.6004 35.6004C25.6004 31.1804 29.1804 27.6004 33.6004 27.6004C38.0204 27.6004 41.6004 31.1804 41.6004 35.6004C41.6004 40.0204 38.0204 43.6004 33.6004 43.6004ZM33.6004 31.6004C31.4004 31.6004 29.6004 33.4004 29.6004 35.6004C29.6004 37.8004 31.4004 39.6004 33.6004 39.6004C35.8004 39.6004 37.6004 37.8004 37.6004 35.6004C37.6004 33.4004 35.8004 31.6004 33.6004 31.6004Z"
        fill="url(#paint0_linear_11_1861)" />
    <defs>
        <linearGradient id="paint0_linear_11_1861" x1="41.6004" y1="4.40039" x2="2.20998"
            y2="38.8023" gradientUnits="userSpaceOnUse">
            <stop stop-color="#C90019" />
            <stop offset="1" />
        </linearGradient>
    </defs>
</svg>