<svg width="1088" height="689" viewBox="0 0 1088 689" fill="none" xmlns="http://www.w3.org/2000/svg">
<g clip-path="url(#clip0_2026_490)">
<path d="M961.81 454.942C956.54 500.092 945.59 536.342 930.56 565.252C910.56 603.772 876.35 619.292 845.79 635.532C836.959 640.216 827.778 644.208 818.33 647.472C762.72 666.772 700.48 661.652 651.59 651.462C617.299 644.309 582.492 639.908 547.5 638.302C537.52 637.852 527.53 637.629 517.53 637.632C502.11 637.652 224.46 642.922 156.86 506.062C140.17 472.302 128.73 431.062 124.62 380.792C112.99 238.672 176.91 145.332 259.36 84.3221C415.33 -31.0879 629.12 -26.2479 782.79 92.2021C885.15 171.102 980.99 290.512 961.81 454.942Z" fill="#3F3D56"/>
<path d="M930.56 565.252C910.56 603.772 883.35 629.292 852.79 645.532C843.959 650.216 834.778 654.208 825.33 657.472C769.72 676.772 707.48 671.652 658.59 661.462C624.299 654.309 589.492 649.908 554.5 648.302C544.52 647.852 534.53 647.629 524.53 647.632C509.11 647.652 493.693 648.225 478.28 649.352C378.11 656.712 224.46 642.922 156.86 506.062L326 178.462L388.95 340.081L409.04 391.671L464.41 315.691L493 276.462L623.2 425.732L660 344.462L914.78 552.381L928.99 563.971L930.56 565.252Z" fill="#F2F2F2"/>
<path opacity="0.1" d="M302 283.462L328 226.462L364 309.462L333 249.462L302 283.462Z" fill="black"/>
<path opacity="0.1" d="M554.5 648.302C544.52 647.852 534.53 647.629 524.53 647.632L409.04 391.672L554.5 648.302Z" fill="black"/>
<path opacity="0.1" d="M464.411 315.691L493 293.462L623 443.462L491 315.462L464.411 315.691Z" fill="black"/>
<path opacity="0.1" d="M852.79 645.532C843.959 650.216 834.779 654.208 825.33 657.472L623.2 425.732L852.79 645.532Z" fill="black"/>
<path d="M482 105.462C483.657 105.462 485 104.119 485 102.462C485 100.805 483.657 99.4622 482 99.4622C480.343 99.4622 479 100.805 479 102.462C479 104.119 480.343 105.462 482 105.462Z" fill="#F2F2F2"/>
<path d="M399 208.462C400.657 208.462 402 207.119 402 205.462C402 203.805 400.657 202.462 399 202.462C397.343 202.462 396 203.805 396 205.462C396 207.119 397.343 208.462 399 208.462Z" fill="#F2F2F2"/>
<path d="M602 225.462C603.105 225.462 604 224.567 604 223.462C604 222.358 603.105 221.462 602 221.462C600.895 221.462 600 222.358 600 223.462C600 224.567 600.895 225.462 602 225.462Z" fill="#F2F2F2"/>
<path d="M182 270.462C183.105 270.462 184 269.567 184 268.462C184 267.358 183.105 266.462 182 266.462C180.895 266.462 180 267.358 180 268.462C180 269.567 180.895 270.462 182 270.462Z" fill="#F2F2F2"/>
<path d="M614 101.462C615.105 101.462 616 100.567 616 99.4622C616 98.3576 615.105 97.4622 614 97.4622C612.895 97.4622 612 98.3576 612 99.4622C612 100.567 612.895 101.462 614 101.462Z" fill="#F2F2F2"/>
<path d="M738 197.462C739.105 197.462 740 196.567 740 195.462C740 194.358 739.105 193.462 738 193.462C736.895 193.462 736 194.358 736 195.462C736 196.567 736.895 197.462 738 197.462Z" fill="#F2F2F2"/>
<path d="M860 349.462C861.105 349.462 862 348.567 862 347.462C862 346.358 861.105 345.462 860 345.462C858.895 345.462 858 346.358 858 347.462C858 348.567 858.895 349.462 860 349.462Z" fill="#F2F2F2"/>
<path d="M306 121.722H303.24V118.962H301.76V121.722H299V123.2H301.76V125.959H303.24V123.2H306V121.722Z" fill="#F2F2F2"/>
<path d="M848 424.722H845.24V421.962H843.76V424.722H841V426.2H843.76V428.959H845.24V426.2H848V424.722Z" fill="#F2F2F2"/>
<path d="M1088 614.462C1088 631.031 844.443 688.462 544 688.462C243.557 688.462 0 631.031 0 614.462C0 597.893 243.557 628.462 544 628.462C844.443 628.462 1088 597.894 1088 614.462Z" fill="#3F3D56"/>
<path opacity="0.1" d="M1088 614.462C1088 631.031 844.443 688.462 544 688.462C243.557 688.462 0 631.031 0 614.462C0 597.893 243.557 628.462 544 628.462C844.443 628.462 1088 597.894 1088 614.462Z" fill="black"/>
<path d="M544 644.462C844.443 644.462 1088 631.03 1088 614.462C1088 597.893 844.443 584.462 544 584.462C243.557 584.462 0 597.893 0 614.462C0 631.03 243.557 644.462 544 644.462Z" fill="#3F3D56"/>
<path d="M568 572.462C568 605.599 553.225 596.462 535 596.462C516.775 596.462 502 605.599 502 572.462C502 539.325 535 476.462 535 476.462C535 476.462 568 539.325 568 572.462Z" fill="#FF6584"/>
<path opacity="0.1" d="M550 585.141C550 600.203 543.284 596.05 535 596.05C526.716 596.05 520 600.203 520 585.141C520 570.079 535 541.505 535 541.505C535 541.505 550 570.081 550 585.141Z" fill="black"/>
<path d="M572 605.462H498C493.029 605.462 489 609.491 489 614.462C489 619.432 493.029 623.462 498 623.462H572C576.971 623.462 581 619.432 581 614.462C581 609.491 576.971 605.462 572 605.462Z" fill="#2F2E41"/>
<path d="M572 587.462H498C493.029 587.462 489 591.491 489 596.462C489 601.432 493.029 605.462 498 605.462H572C576.971 605.462 581 601.432 581 596.462C581 591.491 576.971 587.462 572 587.462Z" fill="#2F2E41"/>
<path d="M137 491.028C137 546.371 171.719 591.154 214.626 591.154Z" fill="#3F3D56"/>
<path d="M214.626 591.154C214.626 535.189 253.371 489.903 301.252 489.903Z" fill="#6C63FF"/>
<path d="M165.125 496.045C165.125 548.615 187.265 591.154 214.625 591.154Z" fill="#6C63FF"/>
<path d="M214.626 591.154C214.626 519.643 259.409 461.777 314.752 461.777Z" fill="#3F3D56"/>
<path d="M198.3 591.86C198.3 591.86 209.309 591.521 212.626 589.16C215.943 586.799 229.56 583.977 230.383 587.765C231.206 591.553 246.927 606.609 234.498 606.71C222.069 606.811 205.619 604.774 202.308 602.757C198.997 600.74 198.3 591.86 198.3 591.86Z" fill="#A8A8A8"/>
<path opacity="0.2" d="M234.716 605.39C222.287 605.49 205.837 603.454 202.526 601.437C200.004 599.901 198.999 594.389 198.663 591.846L198.295 591.86C198.295 591.86 198.995 600.739 202.304 602.76C205.613 604.781 222.065 606.813 234.494 606.713C238.082 606.684 239.321 605.408 239.253 603.513C238.755 604.655 237.386 605.368 234.716 605.39Z" fill="black"/>
<path d="M721.429 527.562C721.429 565.591 745.286 596.362 774.77 596.362Z" fill="#3F3D56"/>
<path d="M774.769 596.363C774.769 557.907 801.392 526.788 834.294 526.788Z" fill="#6C63FF"/>
<path d="M740.755 531.009C740.755 567.133 755.968 596.363 774.769 596.363Z" fill="#6C63FF"/>
<path d="M774.769 596.363C774.769 547.224 805.542 507.463 843.569 507.463Z" fill="#3F3D56"/>
<path d="M763.548 596.848C763.548 596.848 771.113 596.615 773.392 594.992C775.671 593.369 785.028 591.43 785.592 594.034C786.156 596.638 796.96 606.983 788.42 607.052C779.88 607.121 768.576 605.722 766.301 604.336C764.026 602.95 763.548 596.848 763.548 596.848Z" fill="#A8A8A8"/>
<path opacity="0.2" d="M788.574 606.145C780.034 606.214 768.73 604.815 766.455 603.429C764.722 602.373 764.032 598.586 763.801 596.839L763.548 596.849C763.548 596.849 764.027 602.949 766.303 604.336C768.579 605.723 779.882 607.121 788.422 607.052C790.887 607.032 791.739 606.152 791.692 604.852C791.349 605.64 790.409 606.13 788.574 606.145Z" fill="black"/>
<path d="M893.813 619.199C893.813 619.199 905.173 617.47 908.313 614.608C911.453 611.746 925.203 607.12 926.53 610.941C927.857 614.762 946.024 628.388 933.163 630.048C920.302 631.708 903.01 631.657 899.328 629.983C895.646 628.309 893.813 619.199 893.813 619.199Z" fill="#A8A8A8"/>
<path opacity="0.2" d="M933.228 628.654C920.368 630.313 903.075 630.263 899.393 628.589C896.593 627.314 894.858 621.731 894.193 619.139L893.814 619.2C893.814 619.2 895.647 628.309 899.33 629.983C903.013 631.657 920.305 631.708 933.165 630.048C936.877 629.569 938.001 628.092 937.694 626.142C937.319 627.388 935.991 628.298 933.228 628.654Z" fill="black"/>
<path d="M614.26 618.381C614.26 618.381 623.847 616.922 626.497 614.506C629.147 612.09 640.752 608.186 641.871 611.411C642.99 614.636 658.323 626.136 647.471 627.536C636.619 628.936 622.023 628.894 618.916 627.481C615.809 626.068 614.26 618.381 614.26 618.381Z" fill="#A8A8A8"/>
<path opacity="0.2" d="M647.524 626.356C636.671 627.756 622.076 627.714 618.969 626.301C616.602 625.225 615.142 620.513 614.579 618.325L614.259 618.376C614.259 618.376 615.806 626.063 618.914 627.476C622.022 628.889 636.614 628.932 647.469 627.531C650.602 627.131 651.55 625.88 651.291 624.231C650.977 625.288 649.856 626.056 647.524 626.356Z" fill="black"/>
<path d="M122.389 613.59C122.389 613.59 129.852 612.454 131.916 610.574C133.98 608.694 143.016 605.654 143.885 608.165C144.754 610.676 156.693 619.628 148.243 620.718C139.793 621.808 128.432 621.775 126.013 620.675C123.594 619.575 122.389 613.59 122.389 613.59Z" fill="#A8A8A8"/>
<path opacity="0.2" d="M148.285 619.802C139.836 620.892 128.474 620.859 126.055 619.759C124.213 618.921 123.076 615.253 122.638 613.55L122.389 613.59C122.389 613.59 123.589 619.574 126.013 620.675C128.437 621.776 139.794 621.808 148.243 620.718C150.682 620.403 151.42 619.433 151.219 618.152C150.973 618.97 150.1 619.568 148.285 619.802Z" fill="black"/>
<path opacity="0.1" d="M383.7 601.818C383.7 632.038 341.576 622.691 290 622.691C238.424 622.691 196.926 632.038 196.926 601.818C196.926 571.598 239.044 565.025 290.62 565.025C342.196 565.025 383.7 571.598 383.7 601.818Z" fill="black"/>
<path d="M383.7 594.381C383.7 624.601 341.576 615.254 290 615.254C238.424 615.254 196.926 624.601 196.926 594.381C196.926 564.161 239.04 557.581 290.616 557.581C342.192 557.581 383.7 564.157 383.7 594.381Z" fill="#3F3D56"/>
<g clip-path="url(#clip1_2026_490)">
<path d="M397.835 353.529C397.835 344.4 405.245 337 414.386 337C482.941 337 538.515 392.504 538.515 460.971C538.515 470.1 531.105 477.5 521.964 477.5H397.835V353.529Z" fill="#C90C0F"/>
<path d="M466.679 601.471C466.679 610.6 459.269 618 450.129 618C381.574 618 326 562.496 326 494.029C326 484.9 333.41 477.5 342.551 477.5H466.679V601.471Z" fill="#C90C0F"/>
<path d="M466.679 477.5H397.835V465.542L466.679 477.5Z" fill="#9F0407"/>
</g>
</g>
<defs>
<clipPath id="clip0_2026_490">
<rect width="1088" height="687.962" fill="white" transform="translate(0 0.5)"/>
</clipPath>
<clipPath id="clip1_2026_490">
<rect width="233" height="281" fill="white" transform="translate(326 337)"/>
</clipPath>
</defs>
</svg>
