<svg width="1129" height="664" viewBox="0 0 1129 664" fill="none" xmlns="http://www.w3.org/2000/svg">
<g clip-path="url(#clip0_2026_804)">
<path d="M321 642.5C498.283 642.5 642 498.783 642 321.5C642 144.217 498.283 0.5 321 0.5C143.717 0.5 0 144.217 0 321.5C0 498.783 143.717 642.5 321 642.5Z" fill="#F2F2F2"/>
<path d="M559 663.5C842.874 663.5 1073 651.188 1073 636C1073 620.812 842.874 608.5 559 608.5C275.126 608.5 45 620.812 45 636C45 651.188 275.126 663.5 559 663.5Z" fill="#3F3D56"/>
<path opacity="0.2" d="M558 649.5C812.051 649.5 1018 639.65 1018 627.5C1018 615.35 812.051 605.5 558 605.5C303.949 605.5 98 615.35 98 627.5C98 639.65 303.949 649.5 558 649.5Z" fill="black"/>
<path d="M971 153H131V203H971V153Z" fill="#3F3D56"/>
<path d="M131 609.33C131 612.176 131.561 614.994 132.65 617.623C133.739 620.252 135.335 622.641 137.347 624.653C139.359 626.665 141.748 628.261 144.377 629.35C147.006 630.439 149.824 631 152.67 631H949.33C952.176 631 954.994 630.439 957.623 629.35C960.252 628.261 962.641 626.665 964.653 624.653C966.665 622.641 968.261 620.252 969.35 617.623C970.439 614.994 971 612.176 971 609.33V178H131V609.33Z" fill="#3F3D56"/>
<path d="M949.33 118H152.67C149.824 118 147.006 118.561 144.377 119.65C141.748 120.739 139.359 122.335 137.347 124.347C135.335 126.359 133.739 128.748 132.65 131.377C131.561 134.006 131 136.824 131 139.67V178H971V139.67C971 136.824 970.439 134.006 969.35 131.377C968.261 128.748 966.665 126.359 964.653 124.347C962.641 122.335 960.252 120.739 957.623 119.65C954.994 118.561 952.176 118 949.33 118Z" fill="#3F3D56"/>
<path opacity="0.2" d="M949.33 118H152.67C149.824 118 147.006 118.561 144.377 119.65C141.748 120.739 139.359 122.335 137.347 124.347C135.335 126.359 133.739 128.748 132.65 131.377C131.561 134.006 131 136.824 131 139.67V178H971V139.67C971 136.824 970.439 134.006 969.35 131.377C968.261 128.748 966.665 126.359 964.653 124.347C962.641 122.335 960.252 120.739 957.623 119.65C954.994 118.561 952.176 118 949.33 118Z" fill="black"/>
<path d="M181 161C188.18 161 194 155.18 194 148C194 140.82 188.18 135 181 135C173.82 135 168 140.82 168 148C168 155.18 173.82 161 181 161Z" fill="#3F3D56"/>
<path d="M217 161C224.18 161 230 155.18 230 148C230 140.82 224.18 135 217 135C209.82 135 204 140.82 204 148C204 155.18 209.82 161 217 161Z" fill="#3F3D56"/>
<path d="M253 161C260.18 161 266 155.18 266 148C266 140.82 260.18 135 253 135C245.82 135 240 140.82 240 148C240 155.18 245.82 161 253 161Z" fill="#3F3D56"/>
<path d="M499.665 214H173.335C170.389 214 168 216.389 168 219.335V594.665C168 597.611 170.389 600 173.335 600H499.665C502.611 600 505 597.611 505 594.665V219.335C505 216.389 502.611 214 499.665 214Z" fill="#606060"/>
<g clip-path="url(#clip1_2026_804)">
<path d="M301.835 288.529C301.835 279.4 309.245 272 318.386 272C386.941 272 442.515 327.504 442.515 395.971C442.515 405.1 435.105 412.5 425.964 412.5H301.835V288.529Z" fill="#C90C0F"/>
<path d="M370.679 536.471C370.679 545.6 363.269 553 354.129 553C285.574 553 230 497.496 230 429.029C230 419.9 237.41 412.5 246.551 412.5H370.679V536.471Z" fill="#C90C0F"/>
<path d="M370.679 412.5H301.835V400.542L370.679 412.5Z" fill="#9F0407"/>
</g>
<path d="M881.524 273H608.476C605.452 273 603 275.452 603 278.476V289.524C603 292.548 605.452 295 608.476 295H881.524C884.548 295 887 292.548 887 289.524V278.476C887 275.452 884.548 273 881.524 273Z" fill="#2E8555"/>
<path d="M947.524 353H542.476C539.452 353 537 355.452 537 358.476V362.524C537 365.548 539.452 368 542.476 368H947.524C950.548 368 953 365.548 953 362.524V358.476C953 355.452 950.548 353 947.524 353Z" fill="#2E8555"/>
<path d="M947.524 397H542.476C539.452 397 537 399.452 537 402.476V406.524C537 409.548 539.452 412 542.476 412H947.524C950.548 412 953 409.548 953 406.524V402.476C953 399.452 950.548 397 947.524 397Z" fill="#2E8555"/>
<path d="M947.524 441H542.476C539.452 441 537 443.452 537 446.476V450.524C537 453.548 539.452 456 542.476 456H947.524C950.548 456 953 453.548 953 450.524V446.476C953 443.452 950.548 441 947.524 441Z" fill="#2E8555"/>
<path d="M947.524 485H542.476C539.452 485 537 487.452 537 490.476V494.524C537 497.548 539.452 500 542.476 500H947.524C950.548 500 953 497.548 953 494.524V490.476C953 487.452 950.548 485 947.524 485Z" fill="#2E8555"/>
<path d="M945.972 553H872.028C868.146 553 865 556.146 865 560.028V571.972C865 575.854 868.146 579 872.028 579H945.972C949.854 579 953 575.854 953 571.972V560.028C953 556.146 949.854 553 945.972 553Z" fill="#3ECC5F"/>
<path d="M1053.1 506.616C1055.76 501.972 1057.14 496.702 1057.09 491.35C1057.09 477.553 1048.54 466.369 1038 466.369C1027.46 466.369 1018.92 477.553 1018.92 491.35C1018.87 496.702 1020.24 501.972 1022.9 506.616C1020.29 511.28 1018.92 516.536 1018.92 521.882C1018.92 527.228 1020.29 532.484 1022.9 537.148C1020.29 541.812 1018.92 547.069 1018.92 552.414C1018.92 557.76 1020.29 563.016 1022.9 567.68C1020.29 572.344 1018.92 577.601 1018.92 582.946C1018.92 588.292 1020.29 593.548 1022.9 598.212C1020.24 602.856 1018.87 608.126 1018.92 613.478C1018.92 627.275 1027.46 638.459 1038 638.459C1048.54 638.459 1057.09 627.275 1057.09 613.478C1057.14 608.126 1055.76 602.856 1053.1 598.212C1055.71 593.548 1057.09 588.292 1057.09 582.946C1057.09 577.601 1055.71 572.344 1053.1 567.68C1055.71 563.016 1057.09 557.76 1057.09 552.414C1057.09 547.069 1055.71 541.812 1053.1 537.148C1055.71 532.484 1057.09 527.228 1057.09 521.882C1057.09 516.536 1055.71 511.28 1053.1 506.616Z" fill="#3F3D56"/>
<path d="M1038 485.799C1048.54 485.799 1057.09 474.614 1057.09 460.818C1057.09 447.021 1048.54 435.837 1038 435.837C1027.46 435.837 1018.92 447.021 1018.92 460.818C1018.92 474.614 1027.46 485.799 1038 485.799Z" fill="#3F3D56"/>
<path d="M1038 455.266C1048.54 455.266 1057.09 444.082 1057.09 430.285C1057.09 416.489 1048.54 405.305 1038 405.305C1027.46 405.305 1018.92 416.489 1018.92 430.285C1018.92 444.082 1027.46 455.266 1038 455.266Z" fill="#3F3D56"/>
<path fill-rule="evenodd" clip-rule="evenodd" d="M1109.44 221.345C1112.05 218.026 1114.42 214.53 1116.55 210.884L1066.4 202.649L1120.63 203.052C1125.84 191.734 1128.67 179.472 1128.97 167.019C1129.27 154.566 1127.03 142.182 1122.38 130.626L1049.62 168.368L1116.72 119.047C1110.43 108.184 1101.98 98.7323 1091.88 91.2801C1081.78 83.8279 1070.26 78.5348 1058.03 75.7308C1045.79 72.9267 1033.11 72.6716 1020.78 74.9815C1008.44 77.2913 996.713 82.1166 986.323 89.1567C975.933 96.1968 967.105 105.301 960.387 115.902C953.669 126.503 949.206 138.373 947.276 150.774C945.346 163.175 945.99 175.841 949.169 187.982C952.347 200.123 957.991 211.48 965.75 221.345C961.686 226.51 958.191 232.099 955.325 238.014L1020.41 271.829L951.011 248.537C946.139 262.942 944.934 278.334 947.508 293.322C950.081 308.309 956.351 322.419 965.75 334.373C955.145 347.856 948.548 364.051 946.713 381.106C944.878 398.161 947.88 415.389 955.374 430.819C962.869 446.249 974.554 459.258 989.093 468.36C1003.63 477.462 1020.44 482.289 1037.59 482.289C1054.75 482.289 1071.56 477.462 1086.1 468.36C1100.63 459.258 1112.32 446.249 1119.81 430.819C1127.31 415.389 1130.31 398.161 1128.48 381.106C1126.64 364.051 1120.04 347.856 1109.44 334.373C1122.11 318.261 1129 298.357 1129 277.859C1129 257.361 1122.11 237.457 1109.44 221.345Z" fill="#3ECC5F"/>
<path opacity="0.1" d="M946.189 277.859C946.157 298.363 953.05 318.276 965.75 334.373C955.145 347.856 948.548 364.051 946.713 381.106C944.878 398.161 947.88 415.389 955.374 430.819C962.869 446.249 974.554 459.258 989.093 468.36C1003.63 477.462 1020.44 482.289 1037.59 482.289C1054.75 482.289 1071.56 477.462 1086.1 468.36C1100.64 459.258 1112.32 446.249 1119.81 430.819C1127.31 415.389 1130.31 398.161 1128.48 381.106C1126.64 364.051 1120.04 347.856 1109.44 334.373C1121.69 318.821 946.189 267.6 946.189 277.859Z" fill="black"/>
</g>
<defs>
<clipPath id="clip0_2026_804">
<rect width="1129" height="663" fill="white" transform="translate(0 0.5)"/>
</clipPath>
<clipPath id="clip1_2026_804">
<rect width="233" height="281" fill="white" transform="translate(230 272)"/>
</clipPath>
</defs>
</svg>
