<svg width="1042" height="555" viewBox="0 0 1042 555" fill="none" xmlns="http://www.w3.org/2000/svg">
<g clip-path="url(#clip0_2026_649)">
<path d="M961.469 438.675C960.309 441.175 959.153 443.642 957.999 446.075C956.199 449.855 954.423 453.562 952.669 457.195C951.889 458.805 951.109 460.385 950.349 461.965C941.749 479.535 933.719 495.075 926.899 507.855C920.711 519.435 911.522 529.138 900.296 535.946C889.069 542.755 876.218 546.419 863.089 546.555L711.439 548.205H709.839L696.839 548.345L685.719 548.465L651.619 548.835H650.239L632.879 549.025H632.349L525.349 550.185L429.839 551.185L418.729 551.305L349.729 552.055H349.649L304.899 552.535H304.419L162.919 554.065L120.589 554.525C116.985 554.566 113.381 554.386 109.799 553.985C108.579 553.845 107.359 553.685 106.149 553.495C86.4072 550.448 68.3054 540.728 54.8593 525.955C36.6493 505.925 23.3992 482.555 14.4992 457.195C13.2126 453.535 12.0126 449.828 10.8992 446.075C-19.9108 341.925 17.6493 207.555 85.2493 117.635C88.0826 113.875 90.9626 110.208 93.8893 106.635L93.9592 106.555C114.749 81.0351 138.059 59.7151 162.889 44.5551C206.889 17.6451 255.639 10.0651 303.589 32.6551C344.159 51.7751 382.039 60.7651 418.759 63.2051C422.469 63.4451 426.179 63.6251 429.869 63.7351C514.099 66.3851 593.039 36.0351 685.739 16.4451C689.429 15.6651 693.129 14.8951 696.859 14.1651C762.989 1.00509 836.349 -5.93491 923.589 8.65509C932.653 10.1358 941.596 12.2747 950.349 15.0551C954.196 16.2951 957.903 17.6284 961.469 19.0551C1003.11 35.9951 1025.82 67.2951 1035.47 106.515C1036.38 110.155 1037.17 113.858 1037.84 117.625C1054.95 211.965 1004.84 345.785 961.469 438.675Z" fill="#F2F2F2"/>
<path opacity="0.1" d="M497.009 446.075C496.606 449.815 495.982 453.529 495.139 457.195H588.839V446.075H497.009ZM418.759 508.885L429.869 508.795V481.325C426.059 481.155 422.349 480.985 418.759 480.805V508.885ZM185.839 446.075V457.195H384.339V446.075H185.839ZM1035.52 106.555H961.519V19.065C957.952 17.6183 954.246 16.285 950.399 15.065V106.555H696.859V14.135C693.129 14.865 689.429 15.635 685.739 16.415V106.555H429.869V63.705C426.179 63.595 422.469 63.415 418.759 63.175V106.555H162.889V44.555C138.059 59.715 114.749 81.035 93.9592 106.555H93.8892V106.635C90.9558 110.235 88.0758 113.902 85.2492 117.635H93.8892V446.075H10.8892C11.9958 449.828 13.1958 453.535 14.4892 457.195H93.8792V550.815C97.8736 552.037 101.951 552.969 106.079 553.605C107.289 553.795 108.509 553.955 109.729 554.095C113.311 554.496 116.915 554.676 120.519 554.635L162.849 554.175V457.175H418.759V551.385L429.869 551.265V457.195H685.739V548.555L696.859 548.435V457.195H950.349V461.965C951.109 460.385 951.889 458.805 952.669 457.195C954.423 453.562 956.199 449.855 957.999 446.075C959.152 443.648 960.309 441.182 961.469 438.675V117.675H1037.89C1037.22 113.882 1036.43 110.175 1035.52 106.555ZM162.889 446.075V117.635H418.759V446.075H162.889ZM429.889 446.075V117.635H685.739V446.075H429.889ZM950.369 446.075H696.859V117.635H950.349L950.369 446.075Z" fill="black"/>
<path d="M863.079 534.115V547.115L711.159 548.515L709.539 548.545L651.799 549.075L650.419 549.095L632.869 549.245H632.349L525.369 550.235L349.759 551.865H349.609L304.959 552.285L304.479 552.295L106.079 554.115V539.115L152.729 511.115L246.329 510.335L248.329 510.325L248.989 510.315L250.989 510.285L295.929 509.915L297.939 509.905L298.579 509.895L300.579 509.885L314.989 509.765L315.369 509.755L350.919 509.455H351.209L628.609 507.115L635.399 507.065H636.079L641.259 507.015L678.909 506.705L680.909 506.675L682.759 506.655H683.719L695.429 506.565L697.749 506.535L700.859 506.515L710.609 506.425L726.079 506.295L728.079 506.275L731.559 506.255H732.209L806.919 505.615L863.079 534.115Z" fill="#65617D"/>
<path opacity="0.2" d="M863.079 534.115V547.115L711.159 548.515L709.539 548.545L651.799 549.075L650.419 549.095L632.869 549.245H632.349L525.369 550.235L349.759 551.865H349.609L304.959 552.285L304.479 552.295L106.079 554.115V539.115L152.729 511.115L246.329 510.335L248.329 510.325L248.989 510.315L250.989 510.285L295.929 509.915L297.939 509.905L298.579 509.895L300.579 509.885L314.989 509.765L315.369 509.755L350.919 509.455H351.209L628.609 507.115L635.399 507.065H636.079L641.259 507.015L678.909 506.705L680.909 506.675L682.759 506.655H683.719L695.429 506.565L697.749 506.535L700.859 506.515L710.609 506.425L726.079 506.295L728.079 506.275L731.559 506.255H732.209L806.919 505.615L863.079 534.115Z" fill="black"/>
<path d="M296.089 484.125V508.615C296.09 509.775 295.761 510.911 295.142 511.892C294.522 512.873 293.637 513.657 292.589 514.155C291.809 514.533 290.956 514.738 290.089 514.755L255.189 515.495C254.257 515.517 253.333 515.322 252.489 514.925C251.423 514.436 250.52 513.651 249.887 512.664C249.254 511.676 248.918 510.528 248.919 509.355V484.125H296.089Z" fill="#3F3D56"/>
<path opacity="0.1" d="M296.089 484.125V508.615C296.09 509.775 295.761 510.911 295.142 511.892C294.522 512.873 293.637 513.657 292.589 514.155C291.809 514.533 290.956 514.738 290.089 514.755L255.189 515.495C254.257 515.517 253.333 515.322 252.489 514.925C251.423 514.436 250.52 513.651 249.887 512.664C249.254 511.676 248.918 510.528 248.919 509.355V484.125H296.089Z" fill="black"/>
<path d="M298.089 484.125V508.615C298.09 509.775 297.761 510.911 297.142 511.892C296.522 512.873 295.637 513.657 294.589 514.155C293.809 514.533 292.956 514.738 292.089 514.755L257.189 515.495C256.257 515.517 255.333 515.322 254.489 514.925C253.423 514.436 252.52 513.651 251.887 512.664C251.254 511.676 250.918 510.528 250.919 509.355V484.125H298.089Z" fill="#3F3D56"/>
<path d="M728.079 484.115H680.909V515.615H728.079V484.115Z" fill="#3F3D56"/>
<path opacity="0.1" d="M728.079 484.115H680.909V515.615H728.079V484.115Z" fill="black"/>
<path d="M726.079 484.115H678.909V515.615H726.079V484.115Z" fill="#3F3D56"/>
<path opacity="0.1" d="M298.079 484.115V489.085L250.909 490.345V484.115H298.079Z" fill="black"/>
<path d="M381.339 312.825V481.025C381.327 482.052 380.921 483.034 380.204 483.77C379.487 484.505 378.515 484.937 377.489 484.975L185.839 490.075H185.789C184.746 490.062 183.749 489.642 183.011 488.904C182.273 488.166 181.852 487.169 181.839 486.125V312.825C181.852 311.781 182.273 310.784 183.011 310.046C183.749 309.308 184.746 308.888 185.789 308.875H377.389C378.433 308.888 379.43 309.308 380.168 310.046C380.906 310.784 381.326 311.781 381.339 312.825Z" fill="#65617D"/>
<path opacity="0.1" d="M185.839 308.875V490.075H185.789C184.746 490.062 183.749 489.642 183.011 488.904C182.273 488.166 181.852 487.169 181.839 486.125V312.825C181.852 311.781 182.273 310.784 183.011 310.046C183.749 309.308 184.746 308.888 185.789 308.875H185.839Z" fill="black"/>
<path d="M194.579 319.615H372.079V467.865L194.579 471.865V319.615Z" fill="#39374D"/>
<path opacity="0.1" d="M726.079 484.115V490.525L678.909 489.265V484.115H726.079Z" fill="black"/>
<path d="M788.339 312.825V486.125C788.326 487.177 787.899 488.182 787.15 488.921C786.401 489.661 785.392 490.075 784.339 490.075L592.649 484.975C591.623 484.937 590.651 484.505 589.935 483.77C589.218 483.034 588.811 482.052 588.799 481.025V312.825C588.812 311.781 589.233 310.784 589.971 310.046C590.709 309.308 591.706 308.888 592.749 308.875H784.349C785.4 308.878 786.407 309.293 787.154 310.032C787.9 310.771 788.326 311.775 788.339 312.825Z" fill="#65617D"/>
<path opacity="0.1" d="M788.339 312.825V486.125C788.326 487.177 787.899 488.182 787.15 488.921C786.402 489.661 785.392 490.075 784.339 490.075V308.875C785.392 308.875 786.402 309.289 787.15 310.029C787.899 310.768 788.326 311.773 788.339 312.825Z" fill="black"/>
<path d="M775.579 319.615H598.079V467.865L775.579 471.865V319.615Z" fill="#39374D"/>
<path d="M583.839 312.825V481.025C583.827 482.052 583.421 483.034 582.704 483.77C581.987 484.505 581.015 484.937 579.989 484.975L388.339 490.075C387.287 490.075 386.277 489.661 385.528 488.921C384.78 488.182 384.353 487.177 384.339 486.125V312.825C384.352 311.781 384.773 310.784 385.511 310.046C386.249 309.308 387.246 308.888 388.289 308.875H579.889C580.933 308.888 581.93 309.308 582.668 310.046C583.406 310.784 583.826 311.781 583.839 312.825Z" fill="#65617D"/>
<path d="M397.079 319.615H574.579V467.865L397.079 471.865V319.615Z" fill="#4267B2"/>
<path opacity="0.1" d="M863.079 534.115V547.115L711.159 548.515L709.539 548.545L651.799 549.075L650.419 549.095L632.869 549.245H632.349L525.369 550.235L349.759 551.865H349.609L304.959 552.285L304.479 552.295L106.079 554.115V539.115L308.589 537.785H309.069L350.059 537.505H350.249L633.329 535.635H633.619L633.789 535.625H634.259L639.049 535.595H640.509L714.999 535.095L719.399 535.075L720.379 535.065L863.079 534.115Z" fill="black"/>
<path d="M487.249 349.945C515.598 349.945 538.579 326.964 538.579 298.615C538.579 270.266 515.598 247.285 487.249 247.285C458.901 247.285 435.919 270.266 435.919 298.615C435.919 326.964 458.901 349.945 487.249 349.945Z" fill="#FBBEBE"/>
<path d="M538.589 377.625C538.589 377.625 439.089 389.625 448.589 377.625C452.029 373.285 452.979 360.425 452.789 345.775C452.729 341.325 452.569 336.715 452.339 332.125C451.239 310.125 448.589 288.625 448.589 288.625C448.589 288.625 535.589 247.625 525.589 280.125C521.589 293.255 522.899 311.695 525.939 329.005C526.829 334.055 527.859 339.005 528.939 343.705C531.575 355.169 534.796 366.491 538.589 377.625Z" fill="#FBBEBE"/>
<path d="M506.119 373.555C517.629 371.425 529.819 367.555 540.649 372.015C543.499 373.185 546.119 374.895 549.039 375.875C551.959 376.855 555.159 377.095 558.199 377.785C568.879 380.205 577.539 388.335 583.099 397.785C588.659 407.235 591.539 417.925 594.359 428.505L601.259 454.335C607.259 476.785 613.259 499.425 614.649 522.635C531.116 527.417 447.392 527.894 363.809 524.065C369.249 513.725 374.809 502.755 374.349 491.065C373.889 479.375 367.159 467.845 369.589 456.325C371.139 448.985 376.159 442.935 379.229 436.105C387.979 416.585 381.169 390.315 396.549 375.455C403.469 368.775 413.549 366.245 423.179 366.565C435.459 366.975 448.029 370.805 460.179 372.675C475.739 375.035 490.439 376.435 506.119 373.555Z" fill="#FF6584"/>
<path opacity="0.1" d="M637.019 484.725L636.919 486.155V486.255L636.749 488.555L635.419 507.065L633.809 529.365L633.349 535.645L632.349 549.085V549.255L525.349 550.255L349.759 552.155V552.995H349.619V551.875L350.069 537.515L350.929 509.455L351.669 485.665L351.739 483.295C351.783 481.865 352.118 480.458 352.723 479.161C353.329 477.865 354.192 476.705 355.261 475.753C356.33 474.801 357.582 474.077 358.939 473.626C360.297 473.174 361.733 473.003 363.159 473.125C367.879 473.525 374.009 474.015 381.339 474.535L384.339 474.755C426.669 477.695 504.899 481.495 583.839 476.755C585.499 476.665 587.169 476.565 588.839 476.445C601.079 475.675 613.309 474.685 625.419 473.445C626.95 473.285 628.497 473.462 629.952 473.964C631.407 474.466 632.735 475.282 633.841 476.352C634.947 477.423 635.804 478.723 636.353 480.161C636.903 481.599 637.13 483.14 637.019 484.675V484.725Z" fill="black"/>
<path d="M349.729 552.995V552.155L525.35 550.245L632.35 549.245H632.65V549.075L633.65 535.635L634.079 529.635L635.72 507.025L637.009 489.125V488.685C637.069 487.86 637.032 487.031 636.9 486.215C636.905 486.182 636.905 486.148 636.9 486.115C636.625 484.427 635.938 482.834 634.9 481.475C633.798 480.063 632.356 478.955 630.708 478.255C629.059 477.555 627.26 477.287 625.48 477.475C613.37 478.715 601.14 479.705 588.9 480.475C587.23 480.595 585.56 480.695 583.9 480.785C504.96 485.475 426.73 481.675 384.4 478.785L381.4 478.565C374.07 478.045 367.94 477.565 363.22 477.155C360.623 476.936 358.037 477.686 355.962 479.262C353.886 480.837 352.467 483.125 351.979 485.685C351.879 486.226 351.818 486.775 351.799 487.325L351.12 509.485L350.19 537.555L349.75 551.915V553.035L349.729 552.995Z" fill="#3F3D56"/>
<path opacity="0.1" d="M637.319 491.735L636.089 507.065L634.259 529.915L633.799 535.635L632.799 548.445L632.739 549.085V549.255L632.589 550.735L632.699 549.255H632.409L525.409 550.255L349.759 552.155V551.875L350.249 537.515L351.249 509.455L351.889 490.805C351.921 489.744 352.217 488.708 352.752 487.791C353.286 486.874 354.042 486.105 354.949 485.555C356.082 484.861 357.406 484.546 358.729 484.655C360.829 484.825 363.409 485.025 366.419 485.245C371.309 485.605 377.339 486.025 384.359 486.465C397.359 487.285 413.669 488.165 432.359 488.885C484.359 490.885 554.559 491.555 621.239 485.715C624.239 485.455 627.339 485.165 630.369 484.875C631.569 484.755 632.777 484.985 633.849 485.535C634.153 485.686 634.441 485.867 634.709 486.075C635.58 486.706 636.269 487.554 636.709 488.535C636.811 488.73 636.895 488.934 636.959 489.145C637.26 489.974 637.382 490.856 637.319 491.735Z" fill="black"/>
<path opacity="0.1" d="M298.089 505.425V508.615C298.09 509.775 297.761 510.912 297.142 511.892C296.522 512.873 295.637 513.658 294.589 514.155L254.489 514.925C253.423 514.437 252.52 513.652 251.887 512.664C251.254 511.677 250.918 510.528 250.919 509.355V506.355L298.089 505.425Z" fill="black"/>
<path d="M298.579 516.035L246.329 517.035V508.365L298.579 507.365V516.035Z" fill="#3F3D56"/>
<path opacity="0.1" d="M298.579 516.035L246.329 517.035V508.365L298.579 507.365V516.035Z" fill="black"/>
<path d="M300.579 516.035L248.329 517.035V508.365L300.579 507.365V516.035Z" fill="#3F3D56"/>
<path opacity="0.1" d="M679.209 507.425V510.615C679.208 511.775 679.537 512.912 680.157 513.892C680.776 514.873 681.661 515.658 682.709 516.155L722.809 516.925C723.875 516.437 724.779 515.652 725.411 514.664C726.044 513.677 726.38 512.528 726.379 511.355V508.355L679.209 507.425Z" fill="black"/>
<path opacity="0.1" d="M678.709 518.035L730.959 519.035V510.365L678.709 509.365V518.035Z" fill="black"/>
<path d="M676.709 518.035L728.959 519.035V510.365L676.709 509.365V518.035Z" fill="#3F3D56"/>
<path d="M454.779 314.345C454.859 321.345 451.619 327.945 448.869 334.415C438.857 357.983 434.52 383.574 436.209 409.125C436.939 420.125 438.789 431.125 436.939 442.025C435.089 452.925 428.509 463.795 417.939 466.925C435.469 477.375 459.199 476.275 475.699 464.265C484.489 457.865 491.039 448.935 497.449 440.155C496.688 455.927 492.121 471.281 484.139 484.905C498.568 483.628 512.566 479.334 525.23 472.302C537.893 465.27 548.938 455.657 557.649 444.085C561.959 438.275 565.709 431.895 567.369 424.855C570.459 411.855 566.149 398.345 562.859 385.355C560.11 374.496 558.049 363.474 556.689 352.355C556.259 348.795 555.909 345.135 556.789 341.655C557.789 337.585 560.459 334.145 562.429 330.435C568.029 319.895 568.159 307.135 565.289 295.555C562.419 283.975 556.799 273.295 551.229 262.745C546.769 254.285 541.929 245.435 533.769 240.465C528.669 237.365 522.769 236.075 516.889 234.825L491.519 229.395C485.969 228.205 480.259 227.015 474.649 227.885C465.179 229.365 458.509 236.205 452.649 243.225C448.059 248.685 436.839 258.935 436.049 266.085C435.329 272.675 441.149 283.715 442.139 290.665C443.439 299.665 444.359 296.665 449.439 302.185C452.649 305.605 454.719 309.555 454.779 314.345Z" fill="#3F3D56"/>
<g clip-path="url(#clip1_2026_649)">
<path d="M270.681 341.529C270.681 337.371 274.052 334 278.21 334C309.398 334 334.681 359.283 334.681 390.471C334.681 394.629 331.31 398 327.151 398H270.681V341.529Z" fill="#C90C0F"/>
<path d="M302 454.471C302 458.629 298.629 462 294.471 462C263.283 462 238 436.717 238 405.529C238 401.371 241.371 398 245.529 398H302V454.471Z" fill="#C90C0F"/>
<path d="M302 398H270.681V392.553L302 398Z" fill="#9F0407"/>
</g>
</g>
<defs>
<clipPath id="clip0_2026_649">
<rect width="1041.28" height="554.141" fill="white" transform="translate(0 0.5)"/>
</clipPath>
<clipPath id="clip1_2026_649">
<rect width="106" height="128" fill="white" transform="translate(238 334)"/>
</clipPath>
</defs>
</svg>
