<svg width="327" height="64" viewBox="0 0 327 64" fill="none" xmlns="http://www.w3.org/2000/svg">
<path d="M16.3403 3.76471C16.3403 1.68552 18.0258 0 20.105 0V0C35.699 0 48.3403 12.6414 48.3403 28.2353V28.2353C48.3403 30.3145 46.6548 32 44.5756 32H16.3403V3.76471Z" fill="#C90C0F"/>
<path d="M32 60.2353C32 62.3145 30.3145 64 28.2353 64V64C12.6414 64 1.10514e-06 51.3586 2.46841e-06 35.7647V35.7647C2.65018e-06 33.6855 1.68552 32 3.76471 32L32 32L32 60.2353Z" fill="#C90C0F"/>
<path d="M31.9999 32H16.3403V29.2766L31.9999 32Z" fill="#9F0407"/>
<path d="M261.797 40.5831C262.849 38.0884 263.372 35.3922 263.372 32.5C263.372 29.6434 262.848 26.9741 261.797 24.4976C260.766 22.0099 259.313 19.8275 257.437 17.9544C255.561 16.0807 253.366 14.62 250.858 13.5728C248.341 12.5225 245.614 12 242.682 12C239.734 12 236.99 12.5128 234.456 13.5437L234.455 13.5442C231.946 14.5728 229.751 16.015 227.874 17.8705L227.872 17.8723C226.015 19.7276 224.562 21.9009 223.513 24.388L223.512 24.3909C222.479 26.8857 221.965 29.5906 221.965 32.5C221.965 35.3916 222.479 38.0873 223.512 40.5817L223.513 40.5846C224.562 43.0717 226.015 45.245 227.872 47.1004L227.874 47.1021C229.75 48.957 231.944 50.4078 234.452 51.4546L234.456 51.4563C236.99 52.4872 239.734 53 242.682 53C245.613 53 248.339 52.487 250.855 51.4558L250.858 51.4546C253.365 50.4078 255.56 48.957 257.436 47.1021C259.312 45.2463 260.767 43.0719 261.797 40.5831ZM261.797 40.5831C261.797 40.5826 261.798 40.5822 261.798 40.5817L261.336 40.3904L261.797 40.5846C261.797 40.5841 261.797 40.5836 261.797 40.5831ZM72.3081 51.6781V52.1781H72.8081H78.9529H79.4529V51.6781V19.4384H89.761H90.261V18.9384V13.3219V12.8219H89.761H62H61.5V13.3219V18.9384V19.4384H62H72.3081V51.6781ZM88.8643 51.4968L88.5992 52.1781H89.3302H96.0785H96.426L96.5471 51.8523L99.8276 43.0274H115.404L118.819 51.8584L118.943 52.1781H119.286H126.226H126.964L126.69 51.4928L111.383 13.1366L111.258 12.8219H110.919H104.253H103.911L103.787 13.1406L88.8643 51.4968ZM131.287 51.6781V52.1781H131.787H137.932H138.432V51.6781V41.916L143.285 36.178L155.171 51.9786L155.321 52.1781H155.57H163.498H164.514L163.894 51.3731L147.978 30.6994L161.775 13.6363L162.433 12.8219H161.386H153.815H153.576L153.426 13.0075L138.432 31.5521V13.3219V12.8219H137.932H131.787H131.287V13.3219V51.6781ZM169.434 51.6781V52.1781H169.934H194.925H195.425V51.6781V46.1986V45.6986H194.925H176.579V34.726H192.209H192.709V34.226V29.1027V28.6027H192.209H176.579V19.2466H194.76H195.26V18.7466V13.3219V12.8219H194.76H169.934H169.434V13.3219V51.6781ZM201.299 38.8836V39.3836H201.799H216.613H217.113V38.8836V33.6507V33.1507H216.613H201.799H201.299V33.6507V38.8836ZM254.92 38.1472L254.919 38.1497C254.248 39.8257 253.315 41.2657 252.121 42.4757C250.928 43.6678 249.523 44.5894 247.902 45.2408C246.301 45.8731 244.563 46.1918 242.682 46.1918C240.163 46.1918 237.908 45.6257 235.904 44.5022C233.919 43.3789 232.337 41.8009 231.156 39.7581C229.981 37.7085 229.384 35.2948 229.384 32.5C229.384 30.3993 229.723 28.5189 230.39 26.8515C231.08 25.1563 232.022 23.7168 233.214 22.5261C234.427 21.3324 235.833 20.4198 237.434 19.7869L237.437 19.7859C239.056 19.1355 240.803 18.8082 242.682 18.8082C245.182 18.8082 247.429 19.374 249.433 20.4978C251.436 21.6207 253.016 23.2069 254.18 25.2665L254.182 25.2709C255.357 27.3013 255.953 29.7051 255.953 32.5C255.953 34.5807 255.606 36.4609 254.92 38.1472ZM269.946 51.6781V52.1781H270.446H276.591H277.091V51.6781V35.9589H292.529H293.029V35.4589V29.9795V29.4795H292.529H277.091V19.4384H294.175H294.675V18.9384V13.3219V12.8219H294.175H270.446H269.946V13.3219V51.6781ZM301.771 51.6781V52.1781H302.271H308.416H308.916V51.6781V35.9589H324.354H324.854V35.4589V29.9795V29.4795H324.354H308.916V19.4384H326H326.5V18.9384V13.3219V12.8219H326H302.271H301.771V13.3219V51.6781ZM101.798 36.7397L107.472 21.904L113.365 36.7397H101.798Z" fill="#222530" stroke="#222530"/>
</svg>
