<svg xmlns="http://www.w3.org/2000/svg" width="22" height="24" viewBox="0 0 22 24" fill="none">
  <g clip-path="url(#clip0_19_6800)">
    <path d="M21.5312 12.0017C21.5312 10.6064 19.7838 9.28413 17.1049 8.46413C17.7231 5.73366 17.4483 3.5613 16.2376 2.86581C15.9586 2.70266 15.6323 2.62539 15.276 2.62539V3.58277C15.4735 3.58277 15.6323 3.62141 15.7654 3.69439C16.3493 4.02926 16.6026 5.30434 16.4051 6.94434C16.3579 7.3479 16.2806 7.77292 16.1861 8.20654C15.3447 8.00046 14.4259 7.84161 13.4599 7.73858C12.8804 6.94434 12.2793 6.22308 11.674 5.59198C13.0736 4.29115 14.3873 3.57848 15.2803 3.57848V2.62109C14.0996 2.62109 12.5541 3.46256 10.9914 4.92224C9.42864 3.47115 7.88309 2.63827 6.70247 2.63827V3.59565C7.59116 3.59565 8.90917 4.30403 10.3087 5.59628C9.7077 6.22738 9.10665 6.94434 8.53566 7.73858C7.5654 7.84161 6.64665 8.00046 5.80519 8.21083C5.70645 7.78151 5.63346 7.36507 5.58194 6.9658C5.38016 5.3258 5.62917 4.05073 6.20875 3.71156C6.33754 3.63429 6.50498 3.59994 6.70247 3.59994V2.64256C6.34184 2.64256 6.01555 2.71984 5.7322 2.88298C4.52582 3.57848 4.25535 5.74654 4.87786 8.46842C2.20749 9.29271 0.46875 10.6107 0.46875 12.0017C0.46875 13.397 2.21608 14.7193 4.89503 15.5393C4.27681 18.2698 4.55158 20.4421 5.76226 21.1376C6.04131 21.3008 6.3676 21.378 6.72822 21.378C7.90885 21.378 9.4544 20.5366 11.0171 19.0769C12.5798 20.528 14.1254 21.3609 15.306 21.3609C15.6667 21.3609 15.9929 21.2836 16.2763 21.1205C17.4827 20.425 17.7531 18.2569 17.1306 15.535C19.7924 14.715 21.5312 13.3927 21.5312 12.0017ZM15.9414 9.13816C15.7826 9.69198 15.5851 10.263 15.3618 10.834C15.1858 10.4905 15.0012 10.1471 14.7994 9.8036C14.6019 9.46015 14.3916 9.12528 14.1812 8.799C14.7908 8.88915 15.379 9.00078 15.9414 9.13816ZM13.9751 13.7104C13.6403 14.29 13.2968 14.8395 12.9405 15.3504C12.3008 15.4062 11.6525 15.4363 11 15.4363C10.3517 15.4363 9.70341 15.4062 9.06802 15.3547C8.71168 14.8438 8.36393 14.2986 8.02906 13.7233C7.70278 13.1609 7.40655 12.5899 7.13608 12.0146C7.40226 11.4393 7.70278 10.864 8.02477 10.3016C8.35964 9.72203 8.70309 9.1725 9.05943 8.66161C9.69911 8.6058 10.3474 8.57575 11 8.57575C11.6482 8.57575 12.2965 8.6058 12.9319 8.65732C13.2882 9.16821 13.636 9.71345 13.9708 10.2887C14.2971 10.8511 14.5934 11.4221 14.8638 11.9974C14.5934 12.5727 14.2971 13.148 13.9751 13.7104ZM15.3618 13.1523C15.5937 13.7276 15.7912 14.3029 15.9543 14.861C15.3919 14.9984 14.7994 15.1143 14.1855 15.2044C14.3959 14.8739 14.6062 14.5347 14.8037 14.187C15.0012 13.8435 15.1858 13.4957 15.3618 13.1523ZM11.0085 17.7331C10.6093 17.321 10.21 16.8616 9.81503 16.3593C10.2014 16.3765 10.5964 16.3894 10.9957 16.3894C11.3992 16.3894 11.7985 16.3808 12.1892 16.3593C11.8028 16.8616 11.4035 17.321 11.0085 17.7331ZM7.8144 15.2044C7.20477 15.1143 6.6166 15.0027 6.05419 14.8653C6.21304 14.3115 6.41053 13.7405 6.63377 13.1695C6.80979 13.5129 6.9944 13.8564 7.19618 14.1998C7.39796 14.5433 7.60404 14.8782 7.8144 15.2044ZM10.9871 6.27031C11.3863 6.68245 11.7856 7.14182 12.1806 7.64413C11.7942 7.62696 11.3992 7.61408 11 7.61408C10.5964 7.61408 10.1971 7.62266 9.80644 7.64413C10.1928 7.14182 10.5921 6.68245 10.9871 6.27031ZM7.81011 8.799C7.59974 9.12957 7.38938 9.46873 7.19189 9.81648C6.9944 10.1599 6.80979 10.5034 6.63377 10.8468C6.40194 10.2716 6.20446 9.69627 6.04131 9.13816C6.60372 9.00507 7.19618 8.88915 7.81011 8.799ZM3.92477 14.1741C2.40498 13.5258 1.42184 12.6757 1.42184 12.0017C1.42184 11.3277 2.40498 10.4733 3.92477 9.82936C4.29399 9.67051 4.69754 9.52884 5.11398 9.39575C5.3587 10.2372 5.68069 11.113 6.07995 12.0103C5.68498 12.9033 5.36728 13.7748 5.12686 14.612C4.70184 14.4789 4.29828 14.3329 3.92477 14.1741ZM6.23451 20.309C5.65063 19.9742 5.39734 18.6991 5.59482 17.0591C5.64205 16.6555 5.71933 16.2305 5.81378 15.7969C6.65524 16.003 7.57398 16.1618 8.53995 16.2649C9.11953 17.0591 9.72058 17.7804 10.3259 18.4115C8.92634 19.7123 7.61262 20.425 6.71964 20.425C6.52644 20.4207 6.3633 20.382 6.23451 20.309ZM16.418 17.0376C16.6197 18.6776 16.3707 19.9527 15.7912 20.2919C15.6624 20.3691 15.4949 20.4035 15.2974 20.4035C14.4087 20.4035 13.0907 19.6951 11.6912 18.4029C12.2922 17.7718 12.8932 17.0548 13.4642 16.2606C14.4345 16.1575 15.3532 15.9987 16.1947 15.7883C16.2935 16.2219 16.3707 16.6384 16.418 17.0376ZM18.0708 14.1741C17.7016 14.3329 17.2981 14.4746 16.8816 14.6077C16.6369 13.7662 16.3149 12.8904 15.9157 11.9931C16.3106 11.1001 16.6283 10.2286 16.8687 9.39146C17.2938 9.52455 17.6973 9.67051 18.0751 9.82936C19.5949 10.4776 20.5781 11.3277 20.5781 12.0017C20.5738 12.6757 19.5906 13.5301 18.0708 14.1741Z" fill="#F2F5F8"/>
    <path d="M10.9952 13.964C12.0788 13.964 12.9572 13.0856 12.9572 12.002C12.9572 10.9185 12.0788 10.04 10.9952 10.04C9.91161 10.04 9.0332 10.9185 9.0332 12.002C9.0332 13.0856 9.91161 13.964 10.9952 13.964Z" fill="#F2F5F8"/>
  </g>
  <defs>
    <clipPath id="clip0_19_6800">
      <rect width="21.0624" height="24" fill="white" transform="translate(0.46875)"/>
    </clipPath>
  </defs>
</svg>