<svg xmlns="http://www.w3.org/2000/svg" width="48" height="48" viewBox="0 0 48 48" fill="none">
    <path
        d="M7.29965 12.0995C8.23965 13.0195 9.71965 13.0595 10.7196 12.2195C11.4596 11.5795 12.0996 11.1995 12.4596 11.3595C13.4596 11.7595 12.4596 13.4195 11.8596 14.3995C11.3596 15.2395 6.13965 22.1795 6.13965 27.0195C6.13965 29.5795 7.09965 31.6995 8.81965 32.9795C10.3196 34.0995 12.2996 34.4395 14.0996 33.8995C16.2396 33.2795 17.9996 31.0995 20.2196 28.3595C22.6396 25.3795 25.8796 21.4795 28.3796 21.4795C31.6396 21.4795 31.6796 23.4995 31.8996 25.0595C24.3396 26.3395 21.1396 32.3995 21.1396 35.7995C21.1396 39.1995 24.0196 41.9795 27.5596 41.9795C30.8196 41.9795 36.1397 39.3195 36.9396 29.7795H39.3596C40.7397 29.7795 41.8596 28.6595 41.8596 27.2795C41.8596 25.8995 40.7397 24.7795 39.3596 24.7795H36.9196C36.6196 21.4795 34.7396 16.3795 28.8596 16.3795C24.3596 16.3795 20.4996 20.1995 18.9796 22.0595C17.8196 23.5195 14.8596 27.0195 14.3996 27.4995C13.8996 28.0995 13.0396 29.1795 12.1796 29.1795C11.2796 29.1795 10.7396 27.5195 11.4596 25.3395C12.1596 23.1595 14.2596 19.6195 15.1596 18.2995C16.7196 16.0195 17.7596 14.4595 17.7596 11.7395C17.7596 7.39953 14.4796 6.01953 12.7396 6.01953C10.5596 6.01953 8.65965 7.27953 7.33965 8.45953C6.27965 9.41953 6.27965 11.0995 7.29965 12.0995ZM27.6196 37.1195C26.9996 37.1195 26.1396 36.5995 26.1396 35.6795C26.1396 34.4795 27.5996 31.2795 31.8796 30.1595C31.2796 35.5395 29.0196 37.1195 27.6196 37.1195Z"
        fill="url(#paint0_linear_11_1869)" />
    <defs>
        <linearGradient id="paint0_linear_11_1869" x1="41.8596" y1="6.01953" x2="5.41486"
            y2="41.2293" gradientUnits="userSpaceOnUse">
            <stop stop-color="#C90019" />
            <stop offset="1" />
        </linearGradient>
    </defs>
</svg>