<svg width="334" height="64" viewBox="0 0 334 64" fill="none" xmlns="http://www.w3.org/2000/svg">
    <g clip-path="url(#clip0_11_1845)">
        <path
            d="M259.049 1.70703H233.057C224.441 1.70703 216.643 5.19148 211 10.827C205.357 16.4626 201.867 24.2493 201.867 32.8537C201.867 50.0537 215.833 64.0004 233.057 64.0004C250.281 64.0004 264.248 50.0537 264.248 32.8537V6.89814C264.248 4.03592 261.915 1.70703 259.049 1.70703ZM247.762 47.5381C243.997 51.2981 238.799 53.6181 233.057 53.6181C221.566 53.6181 212.264 44.3293 212.264 32.8537C212.264 27.1204 214.587 21.9293 218.352 18.1693C222.118 14.4093 227.316 12.0893 233.057 12.0893C238.799 12.0893 243.997 14.4093 247.762 18.1693C251.528 21.9293 253.851 27.1204 253.851 32.8537C253.851 38.587 251.528 43.7781 247.762 47.5381Z"
            class="logo-color" />
        <path d="M16.9508 62.7197V13.1374H0.412109V2.98633H44.6784V13.1374H28.1397V62.7197H16.9508Z"
            class="logo-color" />
        <path
            d="M85.3042 20.0534V25.7868C84.0491 24.0801 82.4469 22.6223 80.5153 21.4134C77.7025 19.6534 74.2221 18.7734 70.0919 18.7734C66.9853 18.7734 64.1191 19.3245 61.4843 20.4357C58.8495 21.5468 56.5708 23.1112 54.6481 25.129C52.7254 27.1468 51.23 29.5379 50.1618 32.2934C49.0936 35.0579 48.5596 38.089 48.5596 41.3868C48.5596 45.769 49.4853 49.6623 51.3368 53.0757C53.1883 56.489 55.734 59.1645 58.983 61.0934C62.232 63.0312 65.9349 64.0001 70.0919 64.0001C74.2488 64.0001 77.7025 63.1201 80.5153 61.3512C82.4469 60.1423 84.0491 58.6934 85.3042 56.9868V62.7201H94.9622V20.0534H85.3042ZM82.4647 48.3201C81.3965 50.2668 79.9278 51.7779 78.0586 52.8445C76.1982 53.9112 74.0975 54.4445 71.7564 54.4445C69.4154 54.4445 67.279 53.9112 65.4187 52.8445C63.5494 51.7779 62.0807 50.2668 61.0125 48.3201C59.9444 46.3734 59.4103 44.0623 59.4103 41.3868C59.4103 38.7112 59.9444 36.4001 61.0125 34.4534C62.0807 32.5068 63.5494 30.9957 65.4187 29.929C67.279 28.8623 69.3976 28.329 71.7564 28.329C74.1153 28.329 76.1982 28.8623 78.0586 29.929C79.9278 30.9957 81.3965 32.5068 82.4647 34.4534C83.5329 36.4001 84.0669 38.7112 84.0669 41.3868C84.0669 44.0623 83.5329 46.3734 82.4647 48.3201Z"
            class="logo-color" />
        <path
            d="M106.676 62.7203V1.28027H117.66V36.3114L133.131 20.0536H145.948L130.905 36.6936L147.871 62.7203H134.795L122.956 43.8225L117.66 49.2447V62.7292H106.676V62.7203Z"
            class="logo-color" />
        <path
            d="M174.557 63.9999C169.92 63.9999 165.843 63.0577 162.336 61.1643C158.829 59.271 156.096 56.631 154.129 53.2532C152.162 49.8666 151.183 45.9288 151.183 41.4399C151.183 38.1421 151.752 35.111 152.892 32.3555C154.031 29.5999 155.624 27.1999 157.681 25.1643C159.728 23.1288 162.149 21.5555 164.944 20.4532C167.73 19.3421 170.783 18.791 174.086 18.791C177.673 18.791 180.877 19.4221 183.699 20.6843C186.521 21.9555 188.862 23.7332 190.722 26.0177C192.592 28.311 193.9 30.9866 194.657 34.0621C195.413 37.1377 195.502 40.4621 194.933 44.0443H161.517C161.49 46.2932 162.024 48.2577 163.119 49.9288C164.214 51.6088 165.781 52.9243 167.819 53.8755C169.858 54.8266 172.252 55.3066 175.02 55.3066C177.468 55.3066 179.818 54.951 182.07 54.2399C184.322 53.5288 186.414 52.4799 188.346 51.0843L192.191 58.7199C190.856 59.8043 189.182 60.7377 187.188 61.5377C185.195 62.3377 183.094 62.9421 180.886 63.3688C178.679 63.7955 176.56 64.0088 174.54 64.0088L174.557 63.9999ZM162.167 36.2666H184.304C184.215 33.3955 183.263 31.1377 181.438 29.5021C179.613 27.8666 177.077 27.0488 173.836 27.0488C170.596 27.0488 167.908 27.8666 165.799 29.5021C163.689 31.1377 162.478 33.3955 162.167 36.2666Z"
            class="logo-color" />
        <path
            d="M288.379 20.0533H299.319V28.9244H288.379V62.72H277.448V28.9244H269.241V20.0533H277.448V14.1244C277.448 9.76889 278.721 6.32889 281.267 3.79556C283.822 1.26222 287.4 0 292.02 0C293.613 0 295.1 0.168889 296.479 0.506667C297.859 0.853333 299.176 1.33333 300.431 1.96444L298.598 10.4533C297.77 10 296.969 9.68 296.203 9.51111C295.429 9.34222 294.69 9.25333 293.978 9.25333C292.296 9.25333 290.943 9.67111 289.919 10.4978C288.895 11.3156 288.379 12.7022 288.379 14.6311V20.0533Z"
            class="logo-color" />
        <path
            d="M321.536 20.0533H332.476V28.9244H321.536V62.72H310.597V28.9244H302.398V20.0533H310.597V14.1244C310.597 9.76889 311.878 6.32889 314.424 3.79556C316.97 1.26222 320.557 0 325.168 0C326.761 0 328.257 0.168889 329.636 0.506667C331.016 0.853333 332.334 1.33333 333.589 1.96444L331.746 10.4533C330.927 10 330.126 9.68 329.361 9.51111C328.586 9.34222 327.847 9.25333 327.135 9.25333C325.453 9.25333 324.1 9.67111 323.076 10.4978C322.053 11.3156 321.536 12.7022 321.536 14.6311V20.0533Z"
            class="logo-color" />
    </g>
    <defs>
        <clipPath id="clip0_11_1845">
            <rect width="333.176" height="64" fill="white" transform="translate(0.412109)" />
        </clipPath>
    </defs>
</svg>
    