<svg xmlns="http://www.w3.org/2000/svg" width="44" height="38" viewBox="0 0 44 38" fill="none">
    <path
        d="M29.6531 27.9746C30.0881 27.9746 30.3156 28.4918 30.0216 28.8125L23.6885 35.721C23.5938 35.8243 23.4601 35.8831 23.32 35.8831H10.3158C9.88194 35.8831 9.65397 35.3684 9.94557 35.0471L16.2157 28.1386C16.3105 28.0342 16.4449 27.9746 16.5859 27.9746H29.6531ZM41.455 15.0458C41.89 15.0458 42.1175 15.5629 41.8237 15.8836L35.4937 22.7923C35.399 22.8957 35.2653 22.9545 35.1251 22.9545H2.54496C2.10996 22.9545 1.88245 22.4375 2.1763 22.1168L8.50617 15.208C8.60088 15.1047 8.73464 15.0458 8.87483 15.0458H41.455ZM33.6673 2.11719C34.1018 2.11719 34.3295 2.63324 34.0367 2.95421L27.7327 9.86274C27.638 9.96656 27.5039 10.0257 27.3633 10.0257H14.3369C13.9022 10.0257 13.6746 9.5093 13.9678 9.18842L20.2811 2.27989C20.3759 2.17623 20.5098 2.11719 20.6502 2.11719H33.6673Z"
        stroke="url(#paint0_linear_11_1885)" stroke-width="3" />
    <defs>
        <linearGradient id="paint0_linear_11_1885" x1="46" y1="0.61719" x2="9.75504" y2="46.6406"
            gradientUnits="userSpaceOnUse">
            <stop stop-color="#C90019" />
            <stop offset="1" />
        </linearGradient>
    </defs>
</svg>